<?xml version="1.0" standalone="no"?>
<!DOCTYPE svg PUBLIC "-//W3C//DTD SVG 20010904//EN"
 "http://www.w3.org/TR/2001/REC-SVG-20010904/DTD/svg10.dtd">
<svg version="1.0" xmlns="http://www.w3.org/2000/svg"
 width="300.000000pt" height="300.000000pt" viewBox="0 0 300.000000 300.000000"
 preserveAspectRatio="xMidYMid meet">
<metadata>
Created by potrace 1.11, written by Peter Selinger 2001-2013
</metadata>
<g transform="translate(0.000000,300.000000) scale(0.100000,-0.100000)"
fill="#000000" stroke="none">
<path d="M2115 2699 c-149 -36 -227 -217 -152 -354 77 -140 270 -169 384 -57
45 43 65 88 71 157 13 166 -139 293 -303 254z"/>
<path d="M1549 2281 c-101 -66 -256 -166 -344 -223 -88 -56 -174 -117 -191
-135 -74 -76 -91 -181 -50 -303 146 -439 387 -1143 396 -1160 12 -22 48 -40
81 -40 11 0 34 13 50 30 35 35 36 26 -17 278 -20 92 -37 178 -40 192 -2 14 -9
45 -14 70 -6 25 -12 54 -15 65 -7 35 -46 229 -51 250 -2 11 -17 83 -33 160
-24 115 -28 144 -18 164 13 28 24 36 297 218 217 145 239 154 278 115 13 -14
94 -103 187 -206 197 -220 211 -230 248 -188 26 29 36 11 -141 282 -63 96
-158 242 -211 324 -121 187 -145 215 -192 221 -33 4 -55 -7 -220 -114z"/>
<path d="M1569 1725 c-19 -13 -38 -28 -44 -32 -5 -5 -30 -24 -55 -42 -88 -67
-86 -80 16 -151 40 -28 77 -58 82 -67 9 -16 4 -42 -53 -242 -22 -78 -25 -98
-15 -117 15 -26 53 -39 78 -25 20 11 242 451 242 479 0 19 -27 52 -126 155
-36 37 -71 67 -78 67 -7 0 -28 -11 -47 -25z"/>
<path d="M669 1486 c-2 -2 -22 -6 -45 -9 -132 -18 -284 -113 -371 -231 -80
-108 -113 -202 -119 -331 -11 -284 172 -530 452 -605 90 -24 236 -20 321 9
117 40 202 96 278 185 l45 53 -32 92 -32 91 -33 -62 c-141 -264 -485 -327
-704 -130 -200 180 -209 474 -20 663 141 141 352 175 530 84 l49 -25 -32 93
-32 92 -50 13 c-46 12 -197 25 -205 18z"/>
<path d="M2134 1470 c-181 -46 -318 -155 -400 -319 -38 -76 -55 -143 -59 -236
-16 -323 240 -606 562 -621 296 -14 557 186 618 474 21 103 13 228 -22 322
-69 187 -223 326 -423 380 -71 20 -198 19 -276 0z m259 -140 c67 -18 159 -74
209 -128 209 -224 147 -579 -125 -719 -308 -159 -673 74 -662 423 7 206 149
379 353 428 62 15 158 13 225 -4z"/>
</g>
</svg>
